M48
;Layer_Color=9474304
;FILE_FORMAT=2:4
INCH,LZ
;TYPE=PLATED
T01F00S00C0.0118
;TYPE=NON_PLATED
T02F00S00C0.0197
T03F00S00C0.1378
%
T01
X006142Y006589
X005984Y006943
X006417Y006904
X006378Y007848
Y008321
X006929Y00836
X005943Y007606
X008622Y007179
X009134Y006746
X009488Y00651
X010748Y006037
X011102
Y005486
X010748
X01126Y006864
X011378Y007652
X01063
X010591Y008281
X011614
X011102Y012833
X010748
Y013384
X011102
X01126Y014211
X009488Y013856
X009134Y014093
X008622Y014526
X006417Y01425
X005984Y014289
X006142Y013935
X012126Y014014
X012244Y014407
X011968Y014644
Y007297
X012244Y007061
X012126Y006667
X018819Y006628
X019921
X020197Y006037
X020551
Y005486
X020197
X018504Y008006
X018819Y013974
X019921
X020197Y013384
X020551
Y012833
X020197
X02589Y013935
X025732Y014289
X026165Y01425
X026126Y008321
Y007848
X025691Y007606
X025732Y006943
X026165Y006904
X02589Y006589
X026677Y00836
X02837Y007179
X028882Y006746
X029236Y00651
X030496Y006037
X03085
Y005486
X030496
X031008Y006864
X031126Y007652
X030378
X030339Y008281
X031362
X031717Y007297
X031992Y007061
X031874Y006667
X038567Y006628
X039669
X039945Y006037
X040299
Y005486
X039945
X038252Y008006
X038567Y013974
X039669
X039945Y013384
X040299
Y012833
X039945
X03085
X030496
Y013384
X03085
X031008Y014211
X031874Y014014
X031992Y014407
X031717Y014644
X029236Y013856
X028882Y014093
X02837Y014526
X04548Y014289
X045913Y01425
X045638Y013935
X048118Y014526
X04863Y014093
X048984Y013856
X050244Y013384
X050598
Y012833
X050244
X050756Y014211
X051622Y014014
X05174Y014407
X051465Y014644
X05111Y008281
X050874Y007652
X050126
X050087Y008281
X050756Y006864
X050598Y006037
X050244
Y005486
X050598
X051622Y006667
X05174Y007061
X051465Y007297
X048984Y00651
X04863Y006746
X048118Y007179
X045913Y006904
X04548Y006943
X045638Y006589
X045439Y007606
X045874Y007848
Y008321
X046425Y00836
X058Y008006
X058315Y006628
Y013974
X059417
X059693Y013384
X060047
Y012833
X059693
X059417Y006628
X059693Y006037
X060047
Y005486
X059693
Y020179
X060047
Y02073
X059693
X059417Y021321
X059693Y027526
X060047
Y028077
X059693
X059417Y028667
X058315
X058Y030045
X05174Y0291
X051465Y029337
X051622Y028707
X050756Y028904
X050874Y029691
X050126
X050244Y028077
X050598
Y027526
X050244
X048984Y028549
X04863Y028785
X048118Y029219
X045913Y028943
X04548Y028982
X045638Y028628
X045439Y029645
X045874Y029888
Y023014
Y022541
X045439Y022299
X04548Y021636
X045913Y021596
X045638Y021281
X046425Y023053
X048118Y021872
X04863Y021439
X048984Y021203
X050244Y02073
X050598
Y020179
X050244
X050756Y021557
X050874Y022344
X050126
X050087Y022974
X05111
X051465Y02199
X05174Y021754
X051622Y02136
X05111Y015628
X050874Y014998
X050126
X050087Y015628
X046425Y015707
X045874Y015667
Y015195
X045439Y014952
X058Y015352
X058315Y021321
X058Y022699
X040299Y02073
X039945
Y020179
X040299
X039669Y021321
X038567
X038252Y022699
X038567Y028667
X039669
X039945Y028077
X040299
Y027526
X039945
X038252Y030045
X031992Y0291
X031717Y029337
X031874Y028707
X031008Y028904
X031126Y029691
X030378
X030496Y028077
X03085
Y027526
X030496
X029236Y028549
X028882Y028785
X02837Y029219
Y021872
X028882Y021439
X029236Y021203
X030496Y02073
X03085
Y020179
X030496
X031008Y021557
X031126Y022344
X030378
X030339Y022974
X031362
X031717Y02199
X031992Y021754
X031874Y02136
X031362Y015628
X031126Y014998
X030378
X030339Y015628
X038252Y015352
X026677Y015707
X026126Y015667
Y015195
X025691Y014952
X02589Y021281
X025732Y021636
X026165Y021596
X026126Y022541
Y023014
X026677Y023053
X025691Y022299
X02589Y028628
X025732Y028982
X026165Y028943
X026126Y029888
X025691Y029645
X020551Y028077
X020197
Y027526
X020551
X019921Y028667
X018819
X018504Y030045
X012244Y0291
X011968Y029337
X012126Y028707
X011968Y02199
X012244Y021754
X012126Y02136
X018819Y021321
X019921
X020197Y02073
X020551
Y020179
X020197
X018504Y022699
Y015352
X011614Y015628
X011378Y014998
X01063
X010591Y015628
X006929Y015707
X006378Y015667
Y015195
X005943Y014952
X006142Y021281
X005984Y021636
X006417Y021596
X006378Y022541
Y023014
X006929Y023053
X005943Y022299
X008622Y021872
X009134Y021439
X009488Y021203
X010748Y02073
X011102
Y020179
X010748
X01126Y021557
X011378Y022344
X01063
X010591Y022974
X011614
X011102Y027526
X010748
Y028077
X011102
X01126Y028904
X011378Y029691
X01063
X009488Y028549
X009134Y028785
X008622Y029219
X006417Y028943
X005984Y028982
X006142Y028628
X005943Y029645
X006378Y029888
Y03036
X006929Y0304
X010591Y030321
X011614
X011102Y034872
X010748
Y035423
X011102
X01126Y03625
X011378Y037037
X01063
X010591Y037667
X011614
X009488Y035896
X009134Y036132
X008622Y036565
X006417Y036289
X005984Y036329
X006142Y035974
X005943Y036992
X006378Y037234
Y037707
X006929Y037746
X006142Y043321
X005984Y043675
X006417Y043636
X006378Y044581
Y045053
X006929Y045093
X005943Y044338
X008622Y043911
X009134Y043478
X009488Y043242
X010748Y04277
X011102
Y042218
X010748
X01126Y043596
X011378Y044384
X01063
X010591Y045014
X011614
X011968Y04403
X012244Y043793
X012126Y0434
X018819Y04336
X019921
X020197Y04277
X020551
Y042218
X020197
X018504Y044738
Y037392
X018819Y036014
X019921
X020197Y035423
X020551
Y034872
X020197
X02589Y035974
X025732Y036329
X026165Y036289
X026126Y037234
Y037707
X026677Y037746
X025691Y036992
X02589Y043321
X025732Y043675
X026165Y043636
X026126Y044581
Y045053
X026677Y045093
X025691Y044338
X026126Y03036
X026677Y0304
X012126Y036053
X012244Y036447
X011968Y036683
X02837Y036565
X028882Y036132
X029236Y035896
X030496Y035423
X03085
Y034872
X030496
X031008Y03625
X031126Y037037
X030378
X030339Y037667
X031362
X031717Y036683
X031992Y036447
X031874Y036053
X031362Y030321
X030339
X030496Y042218
X03085
Y04277
X030496
X031008Y043596
X031126Y044384
X030378
X030339Y045014
X031362
X031717Y04403
X031992Y043793
X031874Y0434
X029236Y043242
X028882Y043478
X02837Y043911
X038252Y044738
X038567Y04336
X039669
X039945Y04277
X040299
Y042218
X039945
X039669Y036014
X039945Y035423
X040299
Y034872
X039945
X038567Y036014
X038252Y037392
X045439Y036992
X045874Y037234
Y037707
X046425Y037746
X045913Y036289
X04548Y036329
X045638Y035974
X048118Y036565
X04863Y036132
X048984Y035896
X050244Y035423
X050598
Y034872
X050244
X050756Y03625
X050874Y037037
X050126
X050087Y037667
X05111
X051465Y036683
X05174Y036447
X051622Y036053
X05111Y030321
X050087
X046425Y0304
X045874Y03036
X045638Y043321
X04548Y043675
X045913Y043636
X045874Y044581
Y045053
X046425Y045093
X045439Y044338
X048118Y043911
X04863Y043478
X048984Y043242
X050244Y04277
X050598
Y042218
X050244
X050756Y043596
X050874Y044384
X050126
X050087Y045014
X05111
X051465Y04403
X05174Y043793
X051622Y0434
X058315Y04336
X058Y044738
Y037392
X058315Y036014
X059417
X059693Y035423
X060047
Y034872
X059693
Y042218
X060047
Y04277
X059693
X059417Y04336
X059693Y049565
X060047
Y050116
X059693
X059417Y050707
X059693Y056911
X060047
Y057463
X059693
X059417Y058053
X058315
X058Y059431
X05111Y059707
X050874Y059077
X050126
X050087Y059707
X050756Y058289
X050598Y057463
X050244
Y056911
X050598
X051622Y058093
X05174Y058486
X051465Y058722
X048984Y057935
X04863Y058171
X048118Y058604
X045913Y058329
X04548Y058368
X045638Y058014
X045439Y059031
X045874Y059274
Y059746
X046425Y059785
Y052439
X045874Y0524
Y051927
X045439Y051685
X04548Y051022
X045913Y050982
X045638Y050667
X048118Y051258
X04863Y050825
X048984Y050589
X050244Y050116
X050598
Y049565
X050244
X050756Y050943
X050874Y05173
X050126
X050087Y05236
X05111
X051465Y051376
X05174Y05114
X051622Y050746
X058315Y050707
X058Y052085
X040299Y050116
X039945
Y049565
X040299
X039669Y050707
X038567
X038252Y052085
X038567Y058053
X039669
X039945Y057463
X040299
Y056911
X039945
X038252Y059431
X031362Y059707
X031126Y059077
X030378
X030339Y059707
X031008Y058289
X03085Y057463
X030496
Y056911
X03085
X031874Y058093
X031992Y058486
X031717Y058722
X029236Y057935
X028882Y058171
X02837Y058604
Y051258
X028882Y050825
X029236Y050589
X030496Y050116
X03085
Y049565
X030496
X031008Y050943
X031126Y05173
X030378
X030339Y05236
X031362
X031717Y051376
X031992Y05114
X031874Y050746
X026165Y050982
X025732Y051022
X02589Y050667
X025691Y051685
X026126Y051927
Y0524
X026677Y052439
X02589Y058014
X025732Y058368
X026165Y058329
X026126Y059274
Y059746
X026677Y059785
X025691Y059031
X020551Y057463
X020197
Y056911
X020551
X019921Y058053
X018819
X018504Y059431
X012244Y058486
X011968Y058722
X012126Y058093
X011968Y051376
X012244Y05114
X012126Y050746
X018819Y050707
X019921
X020197Y050116
X020551
Y049565
X020197
X018504Y052085
X011614Y05236
X011378Y05173
X01063
X010591Y05236
X01126Y050943
X011102Y050116
X010748
Y049565
X011102
X009488Y050589
X009134Y050825
X008622Y051258
X006417Y050982
X005984Y051022
X006142Y050667
X005943Y051685
X006378Y051927
Y0524
X006929Y052439
X006142Y058014
X005984Y058368
X006417Y058329
X006378Y059274
Y059746
X006929Y059785
X005943Y059031
X008622Y058604
X009134Y058171
X009488Y057935
X010748Y057463
X011102
Y056911
X010748
X01126Y058289
X011378Y059077
X01063
X010591Y059707
X011614
X011102Y064258
X010748
Y064809
X011102
X01126Y065636
X011378Y066423
X01063
X010591Y067053
X011614
X009488Y065282
X009134Y065518
X008622Y065951
X006417Y065675
X005984Y065715
X006142Y06536
X005943Y066377
X006378Y06662
Y067093
X006929Y067132
X006142Y072707
X005984Y073061
X006417Y073022
X006378Y073967
Y074439
X006929Y074478
X005943Y073724
X008622Y073297
X009134Y072864
X009488Y072628
X010748Y072156
X011102
Y071604
X010748
X01126Y072982
X011378Y07377
X01063
X010591Y0744
X011614
X011968Y073415
X012244Y073179
X012126Y072785
X018819Y072746
X019921
X020197Y072156
X020551
Y071604
X020197
X018504Y074124
Y066778
X018819Y0654
X019921
X020197Y064809
X020551
Y064258
X020197
X02589Y06536
X025732Y065715
X026165Y065675
X026126Y06662
Y067093
X026677Y067132
X025691Y066377
X02589Y072707
X025732Y073061
X026165Y073022
X026126Y073967
Y074439
X026677Y074478
X025691Y073724
X012244Y065833
X011968Y066069
X012126Y065439
X02837Y065951
X028882Y065518
X029236Y065282
X030496Y064809
X03085
Y064258
X030496
X031008Y065636
X031126Y066423
X030378
X030339Y067053
X031362
X031717Y066069
X031992Y065833
X031874Y065439
X038567Y0654
X039669
X039945Y064809
X040299
Y064258
X039945
X038252Y066778
X038567Y072746
X039669
X039945Y072156
X040299
Y071604
X039945
X038252Y074124
X031362Y0744
X031126Y07377
X030378
X030339Y0744
X031008Y072982
X03085Y072156
X030496
Y071604
X03085
X031874Y072785
X031992Y073179
X031717Y073415
X029236Y072628
X028882Y072864
X02837Y073297
X04548Y073061
X045913Y073022
X045638Y072707
X045439Y073724
X045874Y073967
Y074439
X046425Y074478
X048118Y073297
X04863Y072864
X048984Y072628
X050244Y072156
X050598
Y071604
X050244
X050756Y072982
X050874Y07377
X050126
X050087Y0744
X05111
X051465Y073415
X05174Y073179
X051622Y072785
X05111Y067053
X050874Y066423
X050126
X050087Y067053
X050756Y065636
X050598Y064809
X050244
Y064258
X050598
X051622Y065439
X05174Y065833
X051465Y066069
X048984Y065282
X04863Y065518
X048118Y065951
X045913Y065675
X04548Y065715
X045638Y06536
X045439Y066377
X045874Y06662
Y067093
X046425Y067132
X058Y066778
X058315Y0654
Y072746
X058Y074124
X059417Y072746
X059693Y072156
X060047
Y071604
X059693
X059417Y0654
X059693Y064809
X060047
Y064258
X059693
T02
X00729Y00623
X00764
X00799
X00834
X00869
X00904
X00939
X00946Y008596
X00981
X01016
X00911
X00876
X00841
X00806
X00799Y013577
X00834
X00869
X00904
X00939
X00764
X00729
X01369Y013581
X01404
X01439
X01474
X01509
X01544
X01579
X01576Y008596
X01611
X01646
X01681
X01716
X01751
X01786
X01579Y006234
X01544
X01509
X01474
X01439
X01404
X01369
X027038Y00623
X027388
Y013577
X027038
X027738
X028088
X028438
X028788
X029138
X033438Y013581
X033788
X034138
X034488
X034838
X035188
X035538
X035508Y008596
X035858
X036208
X036558
X036908
X037258
X037608
X035538Y006234
X035188
X034838
X034488
X034138
X033788
X033438
X029138Y00623
X028788
X028438
X028088
X027738
X027808Y008596
X028158
X028508
X028858
X029208
X029558
X029908
X047556
X047906
X048256
X048606
X048956
X049306
X049656
X048886Y00623
X048536
X048186
X047836
X047486
X047136
X046786
X053186Y006234
X053536
X053886
X054236
X054586
X054936
X055286
X055256Y008596
X055606
X055956
X056306
X056656
X057006
X057356
X055286Y013581
X054936
X054586
X054236
X053886
X053536
X053186
X048886Y013577
X048536
X048186
X047836
X047486
X047136
X046786
X047556Y015943
X047906
X048256
X048606
X048956
X049306
X049656
X055256
X055606
X055956
X056306
X056656
X057006
X057356
X055286Y020927
X054936
X054586
X054236
X053886
X053536
X053186
X048886Y020923
X048536
X048186
X047836
X047486
X047136
X046786
X047556Y023289
X047906
X048256
X048606
X048956
X049306
X049656
X055256
X055606
X055956
X056306
X056656
X057006
X057356
X055286Y028274
X054936
X054586
X054236
X053886
X053536
X053186
X048886Y02827
X048536
X048186
X047836
X047486
X047136
X046786
X035538Y028274
X035188
X034838
X034488
X034138
X033788
X033438
X029138Y02827
X028788
X028438
X028088
X027738
X027808Y023289
X028158
X028508
X028858
X029208
X029558
X029908
X029138Y020923
X028788
X028438
X028088
X027738
X027808Y015943
X028158
X028508
X028858
X029208
X029558
X029908
X035508
X035858
X036208
X036558
X036908
X037258
X037608
X035538Y020927
X035188
X034838
X034488
X034138
X033788
X033438
X035508Y023289
X035858
X036208
X036558
X036908
X037258
X037608
X027388Y020923
X027038
Y02827
X027388
X01579Y028274
X01544
X01509
X01474
X01439
X01404
X01369
X01576Y023289
X01611
X01646
X01681
X01716
X01751
X01786
X01579Y020927
X01544
X01509
X01474
X01439
X01404
X01369
X01576Y015943
X01611
X01646
X01681
X01716
X01751
X01786
X01016
X00981
X00946
X00911
X00876
X00841
X00806
X00799Y020923
X00834
X00869
X00904
X00939
X00764
X00729
X00806Y023289
X00841
X00876
X00911
X00946
X00981
X01016
X00939Y02827
X00904
X00869
X00834
X00799
X00764
X00729
X00806Y030636
X00841
X00876
X00911
X00946
X00981
X01016
X00939Y035616
X00904
X00869
X00834
X00799
X00764
X00729
X00806Y037982
X00841
X00876
X00911
X00946
X00981
X01016
X00939Y042963
X00904
X00869
X00834
X00799
X00764
X00729
X00806Y045329
X00841
X00876
X00911
X00946
X00981
X01016
X01576
X01611
X01646
X01681
X01716
X01751
X01786
X01579Y042967
X01544
X01509
X01474
X01439
X01404
X01369
X01576Y037982
X01611
X01646
X01681
X01716
X01751
X01786
X01579Y03562
X01544
X01509
X01474
X01439
X01404
X01369
X01576Y030636
X01611
X01646
X01681
X01716
X01751
X01786
X027038Y035616
X027388
Y042963
X027038
X027738
X028088
X028438
X028788
X029138
X029208Y045329
X029558
X029908
X028858
X028508
X028158
X027808
Y037982
X028158
X028508
X028858
X029208
X029558
X029908
X029138Y035616
X028788
X028438
X028088
X027738
X027808Y030636
X028158
X028508
X028858
X029208
X029558
X029908
X035508
X035858
X036208
X036558
X036908
X037258
X037608
X035538Y03562
X035188
X034838
X034488
X034138
X033788
X033438
X035508Y037982
X035858
X036208
X036558
X036908
X037258
X037608
X035538Y042967
X035188
X034838
X034488
X034138
X033788
X033438
X035508Y045329
X035858
X036208
X036558
X036908
X037258
X037608
X047556
X047906
X048256
X048606
X048956
X049306
X049656
X048886Y042963
X048536
X048186
X047836
X047486
X047136
X046786
X047556Y037982
X047906
X048256
X048606
X048956
X049306
X049656
X048886Y035616
X048536
X048186
X047836
X047486
X047136
X046786
X047556Y030636
X047906
X048256
X048606
X048956
X049306
X049656
X055256
X055606
X055956
X056306
X056656
X057006
X057356
X055286Y03562
X054936
X054586
X054236
X053886
X053536
X053186
X055256Y037982
X055606
X055956
X056306
X056656
X057006
X057356
X055286Y042967
X054936
X054586
X054236
X053886
X053536
X053186
X055256Y045329
X055606
X055956
X056306
X056656
X057006
X057356
X055286Y050313
X054936
X054586
X054236
X053886
X053536
X053186
X048886Y050309
X048536
X048186
X047836
X047486
X047136
X046786
X047556Y052675
X047906
X048256
X048606
X048956
X049306
X049656
X055256
X055606
X055956
X056306
X056656
X057006
X057356
X055286Y057659
X054936
X054586
X054236
X053886
X053536
X053186
X048886Y057656
X048536
X048186
X047836
X047486
X047136
X046786
X047556Y060022
X047906
X048256
X048606
X048956
X049306
X049656
X055256
X055606
X055956
X056306
X056656
X057006
X057356
X037608
X037258
X036908
X036558
X036208
X035858
X035508
X035538Y057659
X035188
X034838
X034488
X034138
X033788
X033438
X029138Y057656
X028788
X028438
X028088
X027738
X027808Y060022
X028158
X028508
X028858
X029208
X029558
X029908
Y052675
X029558
X029208
X028858
X028508
X028158
X027808
X027738Y050309
X028088
X028438
X028788
X029138
X033438Y050313
X033788
X034138
X034488
X034838
X035188
X035538
X035508Y052675
X035858
X036208
X036558
X036908
X037258
X037608
X027388Y050309
X027038
Y057656
X027388
X01579Y057659
X01544
X01509
X01474
X01439
X01404
X01369
X01576Y060022
X01611
X01646
X01681
X01716
X01751
X01786
Y052675
X01751
X01716
X01681
X01646
X01611
X01576
X01579Y050313
X01544
X01509
X01474
X01439
X01404
X01369
X00939Y050309
X00904
X00869
X00834
X00799
X00764
X00729
X00806Y052675
X00841
X00876
X00911
X00946
X00981
X01016
X00939Y057656
X00904
X00869
X00834
X00799
X00764
X00729
X00806Y060022
X00841
X00876
X00911
X00946
X00981
X01016
X00939Y065002
X00904
X00869
X00834
X00799
X00764
X00729
X00806Y067368
X00841
X00876
X00911
X00946
X00981
X01016
X00939Y072349
X00904
X00869
X00834
X00799
X00764
X00729
X00806Y074715
X00841
X00876
X00911
X00946
X00981
X01016
X01576
X01611
X01646
X01681
X01716
X01751
X01786
X01579Y072352
X01544
X01509
X01474
X01439
X01404
X01369
X01576Y067368
X01611
X01646
X01681
X01716
X01751
X01786
X01579Y065006
X01544
X01509
X01474
X01439
X01404
X01369
X027038Y065002
X027388
Y072349
X027038
X027738
X028088
X028438
X028788
X029138
X029208Y074715
X028858
X028508
X028158
X027808
X029558
X029908
X035508
X035858
X036208
X036558
X036908
X037258
X037608
X035538Y072352
X035188
X034838
X034488
X034138
X033788
X033438
X035508Y067368
X035858
X036208
X036558
X036908
X037258
X037608
X035538Y065006
X035188
X034838
X034488
X034138
X033788
X033438
X029138Y065002
X028788
X028438
X028088
X027738
X027808Y067368
X028158
X028508
X028858
X029208
X029558
X029908
X047556
X047906
X048256
X048606
X048956
X049306
X049656
X048886Y065002
X048536
X048186
X047836
X047486
X047136
X046786
X053186Y065006
X053536
X053886
X054236
X054586
X054936
X055286
X055256Y067368
X055606
X055956
X056306
X056656
X057006
X057356
X055286Y072352
X054936
X054586
X054236
X053886
X053536
X053186
X048886Y072349
X048536
X048186
X047836
X047486
X047136
X046786
X047556Y074715
X047906
X048256
X048606
X048956
X049306
X049656
X055256
X055606
X055956
X056306
X056656
X057006
X057356
T03
X002Y002
X06325
Y07775
X00175
M30
