G04*
G04 #@! TF.GenerationSoftware,Altium Limited,Altium Designer,25.0.2 (28)*
G04*
G04 Layer_Color=16711935*
%FSLAX24Y24*%
%MOIN*%
G70*
G04*
G04 #@! TF.SameCoordinates,BAA0B08D-9D87-43D8-96EE-EFDE37164EB2*
G04*
G04*
G04 #@! TF.FilePolarity,Positive*
G04*
G01*
G75*
%ADD19C,0.0020*%
D19*
X0Y2000D02*
G03*
X2000Y0I2000J0D01*
G01*
Y79750D02*
G03*
X-0Y77750I0J-2000D01*
G01*
X65250D02*
G03*
X63250Y79750I-2000J0D01*
G01*
Y0D02*
G03*
X65250Y2000I0J2000D01*
G01*
X49756Y75699D02*
G03*
X49756Y74715I0J-492D01*
G01*
X47456D02*
G03*
X47456Y75699I0J492D01*
G01*
X57456D02*
G03*
X57456Y74715I0J-492D01*
G01*
X55156D02*
G03*
X55156Y75699I0J492D01*
G01*
X55386Y72352D02*
G03*
X55386Y71368I0J-492D01*
G01*
X53086D02*
G03*
X53086Y72352I0J492D01*
G01*
X48986Y72349D02*
G03*
X48986Y71364I0J-492D01*
G01*
X46686D02*
G03*
X46686Y72349I0J492D01*
G01*
Y64018D02*
G03*
X46686Y65002I0J492D01*
G01*
X48986D02*
G03*
X48986Y64018I0J-492D01*
G01*
X53086Y64022D02*
G03*
X53086Y65006I0J492D01*
G01*
X55386D02*
G03*
X55386Y64022I0J-492D01*
G01*
X55156Y67368D02*
G03*
X55156Y68352I0J492D01*
G01*
X57456D02*
G03*
X57456Y67368I0J-492D01*
G01*
X47456D02*
G03*
X47456Y68352I0J492D01*
G01*
X49756D02*
G03*
X49756Y67368I0J-492D01*
G01*
X46686Y56671D02*
G03*
X46686Y57656I0J492D01*
G01*
X48986D02*
G03*
X48986Y56671I0J-492D01*
G01*
X53086Y56675D02*
G03*
X53086Y57659I0J492D01*
G01*
X55386D02*
G03*
X55386Y56675I0J-492D01*
G01*
X55156Y60022D02*
G03*
X55156Y61006I0J492D01*
G01*
X57456D02*
G03*
X57456Y60022I0J-492D01*
G01*
X47456D02*
G03*
X47456Y61006I0J492D01*
G01*
X49756D02*
G03*
X49756Y60022I0J-492D01*
G01*
X46686Y49325D02*
G03*
X46686Y50309I0J492D01*
G01*
X48986D02*
G03*
X48986Y49325I0J-492D01*
G01*
X53086Y49329D02*
G03*
X53086Y50313I0J492D01*
G01*
X55386D02*
G03*
X55386Y49329I0J-492D01*
G01*
X55156Y52675D02*
G03*
X55156Y53659I0J492D01*
G01*
X57456D02*
G03*
X57456Y52675I0J-492D01*
G01*
X47456D02*
G03*
X47456Y53659I0J492D01*
G01*
X49756D02*
G03*
X49756Y52675I0J-492D01*
G01*
X46686Y41979D02*
G03*
X46686Y42963I0J492D01*
G01*
X48986D02*
G03*
X48986Y41979I0J-492D01*
G01*
X53086Y41982D02*
G03*
X53086Y42967I0J492D01*
G01*
X55386D02*
G03*
X55386Y41982I0J-492D01*
G01*
X55156Y45329D02*
G03*
X55156Y46313I0J492D01*
G01*
X57456D02*
G03*
X57456Y45329I0J-492D01*
G01*
X47456D02*
G03*
X47456Y46313I0J492D01*
G01*
X49756D02*
G03*
X49756Y45329I0J-492D01*
G01*
X46686Y34632D02*
G03*
X46686Y35616I0J492D01*
G01*
X48986D02*
G03*
X48986Y34632I0J-492D01*
G01*
X53086Y34636D02*
G03*
X53086Y35620I0J492D01*
G01*
X55386D02*
G03*
X55386Y34636I0J-492D01*
G01*
X55156Y37982D02*
G03*
X55156Y38967I0J492D01*
G01*
X57456D02*
G03*
X57456Y37982I0J-492D01*
G01*
X47456D02*
G03*
X47456Y38967I0J492D01*
G01*
X49756D02*
G03*
X49756Y37982I0J-492D01*
G01*
X46686Y27286D02*
G03*
X46686Y28270I0J492D01*
G01*
X48986D02*
G03*
X48986Y27286I0J-492D01*
G01*
X53086Y27289D02*
G03*
X53086Y28274I0J492D01*
G01*
X55386D02*
G03*
X55386Y27289I0J-492D01*
G01*
X55156Y30636D02*
G03*
X55156Y31620I0J492D01*
G01*
X57456D02*
G03*
X57456Y30636I0J-492D01*
G01*
X47456D02*
G03*
X47456Y31620I0J492D01*
G01*
X49756D02*
G03*
X49756Y30636I0J-492D01*
G01*
Y9581D02*
G03*
X49756Y8596I0J-492D01*
G01*
X47456D02*
G03*
X47456Y9581I0J492D01*
G01*
X57456D02*
G03*
X57456Y8596I0J-492D01*
G01*
X55156D02*
G03*
X55156Y9581I0J492D01*
G01*
X55386Y6234D02*
G03*
X55386Y5250I0J-492D01*
G01*
X53086D02*
G03*
X53086Y6234I0J492D01*
G01*
X48986Y6230D02*
G03*
X48986Y5246I0J-492D01*
G01*
X46686D02*
G03*
X46686Y6230I0J492D01*
G01*
X49756Y16927D02*
G03*
X49756Y15943I0J-492D01*
G01*
X47456D02*
G03*
X47456Y16927I0J492D01*
G01*
X57456D02*
G03*
X57456Y15943I0J-492D01*
G01*
X55156D02*
G03*
X55156Y16927I0J492D01*
G01*
X55386Y13581D02*
G03*
X55386Y12596I0J-492D01*
G01*
X53086D02*
G03*
X53086Y13581I0J492D01*
G01*
X48986Y13577D02*
G03*
X48986Y12593I0J-492D01*
G01*
X46686D02*
G03*
X46686Y13577I0J492D01*
G01*
X49756Y24274D02*
G03*
X49756Y23289I0J-492D01*
G01*
X47456D02*
G03*
X47456Y24274I0J492D01*
G01*
X57456D02*
G03*
X57456Y23289I0J-492D01*
G01*
X55156D02*
G03*
X55156Y24274I0J492D01*
G01*
X55386Y20927D02*
G03*
X55386Y19943I0J-492D01*
G01*
X53086D02*
G03*
X53086Y20927I0J492D01*
G01*
X48986Y20923D02*
G03*
X48986Y19939I0J-492D01*
G01*
X46686D02*
G03*
X46686Y20923I0J492D01*
G01*
X30008Y75699D02*
G03*
X30008Y74715I0J-492D01*
G01*
X27708D02*
G03*
X27708Y75699I0J492D01*
G01*
X37708D02*
G03*
X37708Y74715I0J-492D01*
G01*
X35408D02*
G03*
X35408Y75699I0J492D01*
G01*
X35638Y72352D02*
G03*
X35638Y71368I0J-492D01*
G01*
X33338D02*
G03*
X33338Y72352I0J492D01*
G01*
X29238Y72349D02*
G03*
X29238Y71364I0J-492D01*
G01*
X26938D02*
G03*
X26938Y72349I0J492D01*
G01*
Y64018D02*
G03*
X26938Y65002I0J492D01*
G01*
X29238D02*
G03*
X29238Y64018I0J-492D01*
G01*
X33338Y64022D02*
G03*
X33338Y65006I0J492D01*
G01*
X35638D02*
G03*
X35638Y64022I0J-492D01*
G01*
X35408Y67368D02*
G03*
X35408Y68352I0J492D01*
G01*
X37708D02*
G03*
X37708Y67368I0J-492D01*
G01*
X27708D02*
G03*
X27708Y68352I0J492D01*
G01*
X30008D02*
G03*
X30008Y67368I0J-492D01*
G01*
X26938Y56671D02*
G03*
X26938Y57656I0J492D01*
G01*
X29238D02*
G03*
X29238Y56671I0J-492D01*
G01*
X33338Y56675D02*
G03*
X33338Y57659I0J492D01*
G01*
X35638D02*
G03*
X35638Y56675I0J-492D01*
G01*
X35408Y60022D02*
G03*
X35408Y61006I0J492D01*
G01*
X37708D02*
G03*
X37708Y60022I0J-492D01*
G01*
X27708D02*
G03*
X27708Y61006I0J492D01*
G01*
X30008D02*
G03*
X30008Y60022I0J-492D01*
G01*
X26938Y49325D02*
G03*
X26938Y50309I0J492D01*
G01*
X29238D02*
G03*
X29238Y49325I0J-492D01*
G01*
X33338Y49329D02*
G03*
X33338Y50313I0J492D01*
G01*
X35638D02*
G03*
X35638Y49329I0J-492D01*
G01*
X35408Y52675D02*
G03*
X35408Y53659I0J492D01*
G01*
X37708D02*
G03*
X37708Y52675I0J-492D01*
G01*
X27708D02*
G03*
X27708Y53659I0J492D01*
G01*
X30008D02*
G03*
X30008Y52675I0J-492D01*
G01*
X26938Y41979D02*
G03*
X26938Y42963I0J492D01*
G01*
X29238D02*
G03*
X29238Y41979I0J-492D01*
G01*
X33338Y41982D02*
G03*
X33338Y42967I0J492D01*
G01*
X35638D02*
G03*
X35638Y41982I0J-492D01*
G01*
X35408Y45329D02*
G03*
X35408Y46313I0J492D01*
G01*
X37708D02*
G03*
X37708Y45329I0J-492D01*
G01*
X27708D02*
G03*
X27708Y46313I0J492D01*
G01*
X30008D02*
G03*
X30008Y45329I0J-492D01*
G01*
X26938Y34632D02*
G03*
X26938Y35616I0J492D01*
G01*
X29238D02*
G03*
X29238Y34632I0J-492D01*
G01*
X33338Y34636D02*
G03*
X33338Y35620I0J492D01*
G01*
X35638D02*
G03*
X35638Y34636I0J-492D01*
G01*
X35408Y37982D02*
G03*
X35408Y38967I0J492D01*
G01*
X37708D02*
G03*
X37708Y37982I0J-492D01*
G01*
X27708D02*
G03*
X27708Y38967I0J492D01*
G01*
X30008D02*
G03*
X30008Y37982I0J-492D01*
G01*
X26938Y27286D02*
G03*
X26938Y28270I0J492D01*
G01*
X29238D02*
G03*
X29238Y27286I0J-492D01*
G01*
X33338Y27289D02*
G03*
X33338Y28274I0J492D01*
G01*
X35638D02*
G03*
X35638Y27289I0J-492D01*
G01*
X35408Y30636D02*
G03*
X35408Y31620I0J492D01*
G01*
X37708D02*
G03*
X37708Y30636I0J-492D01*
G01*
X27708D02*
G03*
X27708Y31620I0J492D01*
G01*
X30008D02*
G03*
X30008Y30636I0J-492D01*
G01*
Y9581D02*
G03*
X30008Y8596I0J-492D01*
G01*
X27708D02*
G03*
X27708Y9581I0J492D01*
G01*
X37708D02*
G03*
X37708Y8596I0J-492D01*
G01*
X35408D02*
G03*
X35408Y9581I0J492D01*
G01*
X35638Y6234D02*
G03*
X35638Y5250I0J-492D01*
G01*
X33338D02*
G03*
X33338Y6234I0J492D01*
G01*
X29238Y6230D02*
G03*
X29238Y5246I0J-492D01*
G01*
X26938D02*
G03*
X26938Y6230I0J492D01*
G01*
X30008Y16927D02*
G03*
X30008Y15943I0J-492D01*
G01*
X27708D02*
G03*
X27708Y16927I0J492D01*
G01*
X37708D02*
G03*
X37708Y15943I0J-492D01*
G01*
X35408D02*
G03*
X35408Y16927I0J492D01*
G01*
X35638Y13581D02*
G03*
X35638Y12596I0J-492D01*
G01*
X33338D02*
G03*
X33338Y13581I0J492D01*
G01*
X29238Y13577D02*
G03*
X29238Y12593I0J-492D01*
G01*
X26938D02*
G03*
X26938Y13577I0J492D01*
G01*
X30008Y24274D02*
G03*
X30008Y23289I0J-492D01*
G01*
X27708D02*
G03*
X27708Y24274I0J492D01*
G01*
X37708D02*
G03*
X37708Y23289I0J-492D01*
G01*
X35408D02*
G03*
X35408Y24274I0J492D01*
G01*
X35638Y20927D02*
G03*
X35638Y19943I0J-492D01*
G01*
X33338D02*
G03*
X33338Y20927I0J492D01*
G01*
X29238Y20923D02*
G03*
X29238Y19939I0J-492D01*
G01*
X26938D02*
G03*
X26938Y20923I0J492D01*
G01*
X7190Y19939D02*
G03*
X7190Y20923I0J492D01*
G01*
X9490D02*
G03*
X9490Y19939I0J-492D01*
G01*
X13590Y19943D02*
G03*
X13590Y20927I0J492D01*
G01*
X15890D02*
G03*
X15890Y19943I0J-492D01*
G01*
X15660Y23289D02*
G03*
X15660Y24274I0J492D01*
G01*
X17960D02*
G03*
X17960Y23289I0J-492D01*
G01*
X7960D02*
G03*
X7960Y24274I0J492D01*
G01*
X10260D02*
G03*
X10260Y23289I0J-492D01*
G01*
X7190Y12593D02*
G03*
X7190Y13577I0J492D01*
G01*
X9490D02*
G03*
X9490Y12593I0J-492D01*
G01*
X13590Y12596D02*
G03*
X13590Y13581I0J492D01*
G01*
X15890D02*
G03*
X15890Y12596I0J-492D01*
G01*
X15660Y15943D02*
G03*
X15660Y16927I0J492D01*
G01*
X17960D02*
G03*
X17960Y15943I0J-492D01*
G01*
X7960D02*
G03*
X7960Y16927I0J492D01*
G01*
X10260D02*
G03*
X10260Y15943I0J-492D01*
G01*
X7190Y5246D02*
G03*
X7190Y6230I0J492D01*
G01*
X9490D02*
G03*
X9490Y5246I0J-492D01*
G01*
X13590Y5250D02*
G03*
X13590Y6234I0J492D01*
G01*
X15890D02*
G03*
X15890Y5250I0J-492D01*
G01*
X15660Y8596D02*
G03*
X15660Y9581I0J492D01*
G01*
X17960D02*
G03*
X17960Y8596I0J-492D01*
G01*
X7960D02*
G03*
X7960Y9581I0J492D01*
G01*
X10260D02*
G03*
X10260Y8596I0J-492D01*
G01*
Y31620D02*
G03*
X10260Y30636I0J-492D01*
G01*
X7960D02*
G03*
X7960Y31620I0J492D01*
G01*
X17960D02*
G03*
X17960Y30636I0J-492D01*
G01*
X15660D02*
G03*
X15660Y31620I0J492D01*
G01*
X15890Y28274D02*
G03*
X15890Y27289I0J-492D01*
G01*
X13590D02*
G03*
X13590Y28274I0J492D01*
G01*
X9490Y28270D02*
G03*
X9490Y27286I0J-492D01*
G01*
X7190D02*
G03*
X7190Y28270I0J492D01*
G01*
X10260Y38967D02*
G03*
X10260Y37982I0J-492D01*
G01*
X7960D02*
G03*
X7960Y38967I0J492D01*
G01*
X17960D02*
G03*
X17960Y37982I0J-492D01*
G01*
X15660D02*
G03*
X15660Y38967I0J492D01*
G01*
X15890Y35620D02*
G03*
X15890Y34636I0J-492D01*
G01*
X13590D02*
G03*
X13590Y35620I0J492D01*
G01*
X9490Y35616D02*
G03*
X9490Y34632I0J-492D01*
G01*
X7190D02*
G03*
X7190Y35616I0J492D01*
G01*
X10260Y46313D02*
G03*
X10260Y45329I0J-492D01*
G01*
X7960D02*
G03*
X7960Y46313I0J492D01*
G01*
X17960D02*
G03*
X17960Y45329I0J-492D01*
G01*
X15660D02*
G03*
X15660Y46313I0J492D01*
G01*
X15890Y42967D02*
G03*
X15890Y41982I0J-492D01*
G01*
X13590D02*
G03*
X13590Y42967I0J492D01*
G01*
X9490Y42963D02*
G03*
X9490Y41979I0J-492D01*
G01*
X7190D02*
G03*
X7190Y42963I0J492D01*
G01*
X10260Y53659D02*
G03*
X10260Y52675I0J-492D01*
G01*
X7960D02*
G03*
X7960Y53659I0J492D01*
G01*
X17960D02*
G03*
X17960Y52675I0J-492D01*
G01*
X15660D02*
G03*
X15660Y53659I0J492D01*
G01*
X15890Y50313D02*
G03*
X15890Y49329I0J-492D01*
G01*
X13590D02*
G03*
X13590Y50313I0J492D01*
G01*
X9490Y50309D02*
G03*
X9490Y49325I0J-492D01*
G01*
X7190D02*
G03*
X7190Y50309I0J492D01*
G01*
X10260Y61006D02*
G03*
X10260Y60022I0J-492D01*
G01*
X7960D02*
G03*
X7960Y61006I0J492D01*
G01*
X17960D02*
G03*
X17960Y60022I0J-492D01*
G01*
X15660D02*
G03*
X15660Y61006I0J492D01*
G01*
X15890Y57659D02*
G03*
X15890Y56675I0J-492D01*
G01*
X13590D02*
G03*
X13590Y57659I0J492D01*
G01*
X9490Y57656D02*
G03*
X9490Y56671I0J-492D01*
G01*
X7190D02*
G03*
X7190Y57656I0J492D01*
G01*
X10260Y68352D02*
G03*
X10260Y67368I0J-492D01*
G01*
X7960D02*
G03*
X7960Y68352I0J492D01*
G01*
X17960D02*
G03*
X17960Y67368I0J-492D01*
G01*
X15660D02*
G03*
X15660Y68352I0J492D01*
G01*
X15890Y65006D02*
G03*
X15890Y64022I0J-492D01*
G01*
X13590D02*
G03*
X13590Y65006I0J492D01*
G01*
X9490Y65002D02*
G03*
X9490Y64018I0J-492D01*
G01*
X7190D02*
G03*
X7190Y65002I0J492D01*
G01*
Y71364D02*
G03*
X7190Y72349I0J492D01*
G01*
X9490D02*
G03*
X9490Y71364I0J-492D01*
G01*
X13590Y71368D02*
G03*
X13590Y72352I0J492D01*
G01*
X15890D02*
G03*
X15890Y71368I0J-492D01*
G01*
X15660Y74715D02*
G03*
X15660Y75699I0J492D01*
G01*
X17960D02*
G03*
X17960Y74715I0J-492D01*
G01*
X7960D02*
G03*
X7960Y75699I0J492D01*
G01*
X10260D02*
G03*
X10260Y74715I0J-492D01*
G01*
X2000Y0D02*
X63250D01*
X65250Y2000D02*
Y77750D01*
X2000Y79750D02*
X63250D01*
X-0Y2000D02*
Y77750D01*
X57456Y75699D02*
X61246D01*
Y70250D02*
Y75699D01*
X58496Y70250D02*
X61246D01*
X58496D02*
Y71368D01*
X55386D02*
X58496D01*
X51746D02*
X53086D01*
X51746Y70360D02*
Y71368D01*
X48986Y70360D02*
X51746D01*
X48986D02*
Y71364D01*
X43496D02*
X46686D01*
X43496D02*
Y75699D01*
X47456D01*
X49756D02*
X55156D01*
Y75689D02*
Y75699D01*
X50795Y71368D02*
X50799D01*
X50795Y64022D02*
X50799D01*
X55156Y68342D02*
Y68352D01*
X49756D02*
X55156D01*
X43496D02*
X47456D01*
X43496Y64018D02*
Y68352D01*
Y64018D02*
X46686D01*
X48986Y63014D02*
Y64018D01*
Y63014D02*
X51746D01*
Y64022D01*
X53086D01*
X55386D02*
X58496D01*
Y62904D02*
Y64022D01*
Y62904D02*
X61246D01*
Y68352D01*
X57456D02*
X61246D01*
X50795Y56675D02*
X50799D01*
X55156Y60996D02*
Y61006D01*
X49756D02*
X55156D01*
X43496D02*
X47456D01*
X43496Y56671D02*
Y61006D01*
Y56671D02*
X46686D01*
X48986Y55667D02*
Y56671D01*
Y55667D02*
X51746D01*
Y56675D01*
X53086D01*
X55386D02*
X58496D01*
Y55557D02*
Y56675D01*
Y55557D02*
X61246D01*
Y61006D01*
X57456D02*
X61246D01*
X50795Y49329D02*
X50799D01*
X55156Y53649D02*
Y53659D01*
X49756D02*
X55156D01*
X43496D02*
X47456D01*
X43496Y49325D02*
Y53659D01*
Y49325D02*
X46686D01*
X48986Y48321D02*
Y49325D01*
Y48321D02*
X51746D01*
Y49329D01*
X53086D01*
X55386D02*
X58496D01*
Y48211D02*
Y49329D01*
Y48211D02*
X61246D01*
Y53659D01*
X57456D02*
X61246D01*
X50795Y41982D02*
X50799D01*
X55156Y46303D02*
Y46313D01*
X49756D02*
X55156D01*
X43496D02*
X47456D01*
X43496Y41979D02*
Y46313D01*
Y41979D02*
X46686D01*
X48986Y40974D02*
Y41979D01*
Y40974D02*
X51746D01*
Y41982D01*
X53086D01*
X55386D02*
X58496D01*
Y40864D02*
Y41982D01*
Y40864D02*
X61246D01*
Y46313D01*
X57456D02*
X61246D01*
X50795Y34636D02*
X50799D01*
X55156Y38956D02*
Y38967D01*
X49756D02*
X55156D01*
X43496D02*
X47456D01*
X43496Y34632D02*
Y38967D01*
Y34632D02*
X46686D01*
X48986Y33628D02*
Y34632D01*
Y33628D02*
X51746D01*
Y34636D01*
X53086D01*
X55386D02*
X58496D01*
Y33518D02*
Y34636D01*
Y33518D02*
X61246D01*
Y38967D01*
X57456D02*
X61246D01*
X50795Y27289D02*
X50799D01*
X55156Y31610D02*
Y31620D01*
X49756D02*
X55156D01*
X43496D02*
X47456D01*
X43496Y27286D02*
Y31620D01*
Y27286D02*
X46686D01*
X48986Y26281D02*
Y27286D01*
Y26281D02*
X51746D01*
Y27289D01*
X53086D01*
X55386D02*
X58496D01*
Y26171D02*
Y27289D01*
Y26171D02*
X61246D01*
Y31620D01*
X57456D02*
X61246D01*
X57456Y9581D02*
X61246D01*
Y4132D02*
Y9581D01*
X58496Y4132D02*
X61246D01*
X58496D02*
Y5250D01*
X55386D02*
X58496D01*
X51746D02*
X53086D01*
X51746Y4242D02*
Y5250D01*
X48986Y4242D02*
X51746D01*
X48986D02*
Y5246D01*
X43496D02*
X46686D01*
X43496D02*
Y9581D01*
X47456D01*
X49756D02*
X55156D01*
Y9570D02*
Y9581D01*
X50795Y5250D02*
X50799D01*
X57456Y16927D02*
X61246D01*
Y11478D02*
Y16927D01*
X58496Y11478D02*
X61246D01*
X58496D02*
Y12596D01*
X55386D02*
X58496D01*
X51746D02*
X53086D01*
X51746Y11588D02*
Y12596D01*
X48986Y11588D02*
X51746D01*
X48986D02*
Y12593D01*
X43496D02*
X46686D01*
X43496D02*
Y16927D01*
X47456D01*
X49756D02*
X55156D01*
Y16917D02*
Y16927D01*
X50795Y12596D02*
X50799D01*
X57456Y24274D02*
X61246D01*
Y18825D02*
Y24274D01*
X58496Y18825D02*
X61246D01*
X58496D02*
Y19943D01*
X55386D02*
X58496D01*
X51746D02*
X53086D01*
X51746Y18935D02*
Y19943D01*
X48986Y18935D02*
X51746D01*
X48986D02*
Y19939D01*
X43496D02*
X46686D01*
X43496D02*
Y24274D01*
X47456D01*
X49756D02*
X55156D01*
Y24263D02*
Y24274D01*
X50795Y19943D02*
X50799D01*
X37708Y75699D02*
X41498D01*
Y70250D02*
Y75699D01*
X38748Y70250D02*
X41498D01*
X38748D02*
Y71368D01*
X35638D02*
X38748D01*
X31998D02*
X33338D01*
X31998Y70360D02*
Y71368D01*
X29238Y70360D02*
X31998D01*
X29238D02*
Y71364D01*
X23748D02*
X26938D01*
X23748D02*
Y75699D01*
X27708D01*
X30008D02*
X35408D01*
Y75689D02*
Y75699D01*
X31047Y71368D02*
X31051D01*
X31047Y64022D02*
X31051D01*
X35408Y68342D02*
Y68352D01*
X30008D02*
X35408D01*
X23748D02*
X27708D01*
X23748Y64018D02*
Y68352D01*
Y64018D02*
X26938D01*
X29238Y63014D02*
Y64018D01*
Y63014D02*
X31998D01*
Y64022D01*
X33338D01*
X35638D02*
X38748D01*
Y62904D02*
Y64022D01*
Y62904D02*
X41498D01*
Y68352D01*
X37708D02*
X41498D01*
X31047Y56675D02*
X31051D01*
X35408Y60996D02*
Y61006D01*
X30008D02*
X35408D01*
X23748D02*
X27708D01*
X23748Y56671D02*
Y61006D01*
Y56671D02*
X26938D01*
X29238Y55667D02*
Y56671D01*
Y55667D02*
X31998D01*
Y56675D01*
X33338D01*
X35638D02*
X38748D01*
Y55557D02*
Y56675D01*
Y55557D02*
X41498D01*
Y61006D01*
X37708D02*
X41498D01*
X31047Y49329D02*
X31051D01*
X35408Y53649D02*
Y53659D01*
X30008D02*
X35408D01*
X23748D02*
X27708D01*
X23748Y49325D02*
Y53659D01*
Y49325D02*
X26938D01*
X29238Y48321D02*
Y49325D01*
Y48321D02*
X31998D01*
Y49329D01*
X33338D01*
X35638D02*
X38748D01*
Y48211D02*
Y49329D01*
Y48211D02*
X41498D01*
Y53659D01*
X37708D02*
X41498D01*
X31047Y41982D02*
X31051D01*
X35408Y46303D02*
Y46313D01*
X30008D02*
X35408D01*
X23748D02*
X27708D01*
X23748Y41979D02*
Y46313D01*
Y41979D02*
X26938D01*
X29238Y40974D02*
Y41979D01*
Y40974D02*
X31998D01*
Y41982D01*
X33338D01*
X35638D02*
X38748D01*
Y40864D02*
Y41982D01*
Y40864D02*
X41498D01*
Y46313D01*
X37708D02*
X41498D01*
X31047Y34636D02*
X31051D01*
X35408Y38956D02*
Y38967D01*
X30008D02*
X35408D01*
X23748D02*
X27708D01*
X23748Y34632D02*
Y38967D01*
Y34632D02*
X26938D01*
X29238Y33628D02*
Y34632D01*
Y33628D02*
X31998D01*
Y34636D01*
X33338D01*
X35638D02*
X38748D01*
Y33518D02*
Y34636D01*
Y33518D02*
X41498D01*
Y38967D01*
X37708D02*
X41498D01*
X31047Y27289D02*
X31051D01*
X35408Y31610D02*
Y31620D01*
X30008D02*
X35408D01*
X23748D02*
X27708D01*
X23748Y27286D02*
Y31620D01*
Y27286D02*
X26938D01*
X29238Y26281D02*
Y27286D01*
Y26281D02*
X31998D01*
Y27289D01*
X33338D01*
X35638D02*
X38748D01*
Y26171D02*
Y27289D01*
Y26171D02*
X41498D01*
Y31620D01*
X37708D02*
X41498D01*
X37708Y9581D02*
X41498D01*
Y4132D02*
Y9581D01*
X38748Y4132D02*
X41498D01*
X38748D02*
Y5250D01*
X35638D02*
X38748D01*
X31998D02*
X33338D01*
X31998Y4242D02*
Y5250D01*
X29238Y4242D02*
X31998D01*
X29238D02*
Y5246D01*
X23748D02*
X26938D01*
X23748D02*
Y9581D01*
X27708D01*
X30008D02*
X35408D01*
Y9570D02*
Y9581D01*
X31047Y5250D02*
X31051D01*
X37708Y16927D02*
X41498D01*
Y11478D02*
Y16927D01*
X38748Y11478D02*
X41498D01*
X38748D02*
Y12596D01*
X35638D02*
X38748D01*
X31998D02*
X33338D01*
X31998Y11588D02*
Y12596D01*
X29238Y11588D02*
X31998D01*
X29238D02*
Y12593D01*
X23748D02*
X26938D01*
X23748D02*
Y16927D01*
X27708D01*
X30008D02*
X35408D01*
Y16917D02*
Y16927D01*
X31047Y12596D02*
X31051D01*
X37708Y24274D02*
X41498D01*
Y18825D02*
Y24274D01*
X38748Y18825D02*
X41498D01*
X38748D02*
Y19943D01*
X35638D02*
X38748D01*
X31998D02*
X33338D01*
X31998Y18935D02*
Y19943D01*
X29238Y18935D02*
X31998D01*
X29238D02*
Y19939D01*
X23748D02*
X26938D01*
X23748D02*
Y24274D01*
X27708D01*
X30008D02*
X35408D01*
Y24263D02*
Y24274D01*
X31047Y19943D02*
X31051D01*
X11299D02*
X11303D01*
X15660Y24263D02*
Y24274D01*
X10260D02*
X15660D01*
X4000D02*
X7960D01*
X4000Y19939D02*
Y24274D01*
Y19939D02*
X7190D01*
X9490Y18935D02*
Y19939D01*
Y18935D02*
X12250D01*
Y19943D01*
X13590D01*
X15890D02*
X19000D01*
Y18825D02*
Y19943D01*
Y18825D02*
X21750D01*
Y24274D01*
X17960D02*
X21750D01*
X11299Y12596D02*
X11303D01*
X15660Y16917D02*
Y16927D01*
X10260D02*
X15660D01*
X4000D02*
X7960D01*
X4000Y12593D02*
Y16927D01*
Y12593D02*
X7190D01*
X9490Y11588D02*
Y12593D01*
Y11588D02*
X12250D01*
Y12596D01*
X13590D01*
X15890D02*
X19000D01*
Y11478D02*
Y12596D01*
Y11478D02*
X21750D01*
Y16927D01*
X17960D02*
X21750D01*
X11299Y5250D02*
X11303D01*
X15660Y9570D02*
Y9581D01*
X10260D02*
X15660D01*
X4000D02*
X7960D01*
X4000Y5246D02*
Y9581D01*
Y5246D02*
X7190D01*
X9490Y4242D02*
Y5246D01*
Y4242D02*
X12250D01*
Y5250D01*
X13590D01*
X15890D02*
X19000D01*
Y4132D02*
Y5250D01*
Y4132D02*
X21750D01*
Y9581D01*
X17960D02*
X21750D01*
X17960Y31620D02*
X21750D01*
Y26171D02*
Y31620D01*
X19000Y26171D02*
X21750D01*
X19000D02*
Y27289D01*
X15890D02*
X19000D01*
X12250D02*
X13590D01*
X12250Y26281D02*
Y27289D01*
X9490Y26281D02*
X12250D01*
X9490D02*
Y27286D01*
X4000D02*
X7190D01*
X4000D02*
Y31620D01*
X7960D01*
X10260D02*
X15660D01*
Y31610D02*
Y31620D01*
X11299Y27289D02*
X11303D01*
X17960Y38967D02*
X21750D01*
Y33518D02*
Y38967D01*
X19000Y33518D02*
X21750D01*
X19000D02*
Y34636D01*
X15890D02*
X19000D01*
X12250D02*
X13590D01*
X12250Y33628D02*
Y34636D01*
X9490Y33628D02*
X12250D01*
X9490D02*
Y34632D01*
X4000D02*
X7190D01*
X4000D02*
Y38967D01*
X7960D01*
X10260D02*
X15660D01*
Y38956D02*
Y38967D01*
X11299Y34636D02*
X11303D01*
X17960Y46313D02*
X21750D01*
Y40864D02*
Y46313D01*
X19000Y40864D02*
X21750D01*
X19000D02*
Y41982D01*
X15890D02*
X19000D01*
X12250D02*
X13590D01*
X12250Y40974D02*
Y41982D01*
X9490Y40974D02*
X12250D01*
X9490D02*
Y41979D01*
X4000D02*
X7190D01*
X4000D02*
Y46313D01*
X7960D01*
X10260D02*
X15660D01*
Y46303D02*
Y46313D01*
X11299Y41982D02*
X11303D01*
X17960Y53659D02*
X21750D01*
Y48211D02*
Y53659D01*
X19000Y48211D02*
X21750D01*
X19000D02*
Y49329D01*
X15890D02*
X19000D01*
X12250D02*
X13590D01*
X12250Y48321D02*
Y49329D01*
X9490Y48321D02*
X12250D01*
X9490D02*
Y49325D01*
X4000D02*
X7190D01*
X4000D02*
Y53659D01*
X7960D01*
X10260D02*
X15660D01*
Y53649D02*
Y53659D01*
X11299Y49329D02*
X11303D01*
X17960Y61006D02*
X21750D01*
Y55557D02*
Y61006D01*
X19000Y55557D02*
X21750D01*
X19000D02*
Y56675D01*
X15890D02*
X19000D01*
X12250D02*
X13590D01*
X12250Y55667D02*
Y56675D01*
X9490Y55667D02*
X12250D01*
X9490D02*
Y56671D01*
X4000D02*
X7190D01*
X4000D02*
Y61006D01*
X7960D01*
X10260D02*
X15660D01*
Y60996D02*
Y61006D01*
X11299Y56675D02*
X11303D01*
X17960Y68352D02*
X21750D01*
Y62904D02*
Y68352D01*
X19000Y62904D02*
X21750D01*
X19000D02*
Y64022D01*
X15890D02*
X19000D01*
X12250D02*
X13590D01*
X12250Y63014D02*
Y64022D01*
X9490Y63014D02*
X12250D01*
X9490D02*
Y64018D01*
X4000D02*
X7190D01*
X4000D02*
Y68352D01*
X7960D01*
X10260D02*
X15660D01*
Y68342D02*
Y68352D01*
X11299Y64022D02*
X11303D01*
X11299Y71368D02*
X11303D01*
X15660Y75689D02*
Y75699D01*
X10260D02*
X15660D01*
X4000D02*
X7960D01*
X4000Y71364D02*
Y75699D01*
Y71364D02*
X7190D01*
X9490Y70360D02*
Y71364D01*
Y70360D02*
X12250D01*
Y71368D01*
X13590D01*
X15890D02*
X19000D01*
Y70250D02*
Y71368D01*
Y70250D02*
X21750D01*
Y75699D01*
X17960D02*
X21750D01*
X10512Y6037D02*
G03*
X10315Y6234I-197J0D01*
G01*
X11496Y6234D02*
G03*
X11299Y6037I0J-197D01*
G01*
X19961Y6037D02*
G03*
X19764Y6234I-197J0D01*
G01*
X5000Y6234D02*
Y8596D01*
X20748D01*
Y5250D02*
Y8596D01*
X11496Y6234D02*
X19764Y6234D01*
X10512Y5250D02*
X11299D01*
X5000Y6234D02*
X10315D01*
X10512Y5250D02*
Y6037D01*
X11299Y5250D02*
Y6037D01*
X19961Y5250D02*
Y6037D01*
Y5250D02*
X20748D01*
X30260Y6037D02*
G03*
X30063Y6234I-197J0D01*
G01*
X31244Y6234D02*
G03*
X31047Y6037I0J-197D01*
G01*
X39709Y6037D02*
G03*
X39512Y6234I-197J0D01*
G01*
X24748Y6234D02*
Y8596D01*
X40496D01*
Y5250D02*
Y8596D01*
X31244Y6234D02*
X39512Y6234D01*
X30260Y5250D02*
X31047D01*
X24748Y6234D02*
X30063D01*
X30260Y5250D02*
Y6037D01*
X31047Y5250D02*
Y6037D01*
X39709Y5250D02*
Y6037D01*
Y5250D02*
X40496D01*
X50008Y6037D02*
G03*
X49811Y6234I-197J0D01*
G01*
X50992Y6234D02*
G03*
X50795Y6037I0J-197D01*
G01*
X59457Y6037D02*
G03*
X59260Y6234I-197J0D01*
G01*
X44496Y6234D02*
Y8596D01*
X60244D01*
Y5250D02*
Y8596D01*
X50992Y6234D02*
X59260Y6234D01*
X50008Y5250D02*
X50795D01*
X44496Y6234D02*
X49811D01*
X50008Y5250D02*
Y6037D01*
X50795Y5250D02*
Y6037D01*
X59457Y5250D02*
Y6037D01*
Y5250D02*
X60244D01*
X10512Y13384D02*
G03*
X10315Y13581I-197J0D01*
G01*
X11496Y13581D02*
G03*
X11299Y13384I0J-197D01*
G01*
X19961Y13384D02*
G03*
X19764Y13581I-197J0D01*
G01*
X5000Y13581D02*
Y15943D01*
X20748D01*
Y12596D02*
Y15943D01*
X11496Y13581D02*
X19764Y13581D01*
X10512Y12596D02*
X11299D01*
X5000Y13581D02*
X10315D01*
X10512Y12596D02*
Y13384D01*
X11299Y12596D02*
Y13384D01*
X19961Y12596D02*
Y13384D01*
Y12596D02*
X20748D01*
X30260Y13384D02*
G03*
X30063Y13581I-197J0D01*
G01*
X31244Y13581D02*
G03*
X31047Y13384I0J-197D01*
G01*
X39709Y13384D02*
G03*
X39512Y13581I-197J0D01*
G01*
X24748Y13581D02*
Y15943D01*
X40496D01*
Y12596D02*
Y15943D01*
X31244Y13581D02*
X39512Y13581D01*
X30260Y12596D02*
X31047D01*
X24748Y13581D02*
X30063D01*
X30260Y12596D02*
Y13384D01*
X31047Y12596D02*
Y13384D01*
X39709Y12596D02*
Y13384D01*
Y12596D02*
X40496D01*
X50008Y13384D02*
G03*
X49811Y13581I-197J0D01*
G01*
X50992Y13581D02*
G03*
X50795Y13384I0J-197D01*
G01*
X59457Y13384D02*
G03*
X59260Y13581I-197J0D01*
G01*
X44496Y13581D02*
Y15943D01*
X60244D01*
Y12596D02*
Y15943D01*
X50992Y13581D02*
X59260Y13581D01*
X50008Y12596D02*
X50795D01*
X44496Y13581D02*
X49811D01*
X50008Y12596D02*
Y13384D01*
X50795Y12596D02*
Y13384D01*
X59457Y12596D02*
Y13384D01*
Y12596D02*
X60244D01*
X10512Y20730D02*
G03*
X10315Y20927I-197J0D01*
G01*
X11496Y20927D02*
G03*
X11299Y20730I0J-197D01*
G01*
X19961Y20730D02*
G03*
X19764Y20927I-197J0D01*
G01*
X5000Y20927D02*
Y23289D01*
X20748D01*
Y19943D02*
Y23289D01*
X11496Y20927D02*
X19764Y20927D01*
X10512Y19943D02*
X11299D01*
X5000Y20927D02*
X10315D01*
X10512Y19943D02*
Y20730D01*
X11299Y19943D02*
Y20730D01*
X19961Y19943D02*
Y20730D01*
Y19943D02*
X20748D01*
X30260Y20730D02*
G03*
X30063Y20927I-197J0D01*
G01*
X31244Y20927D02*
G03*
X31047Y20730I0J-197D01*
G01*
X39709Y20730D02*
G03*
X39512Y20927I-197J0D01*
G01*
X24748Y20927D02*
Y23289D01*
X40496D01*
Y19943D02*
Y23289D01*
X31244Y20927D02*
X39512Y20927D01*
X30260Y19943D02*
X31047D01*
X24748Y20927D02*
X30063D01*
X30260Y19943D02*
Y20730D01*
X31047Y19943D02*
Y20730D01*
X39709Y19943D02*
Y20730D01*
Y19943D02*
X40496D01*
X50008Y20730D02*
G03*
X49811Y20927I-197J0D01*
G01*
X50992Y20927D02*
G03*
X50795Y20730I0J-197D01*
G01*
X59457Y20730D02*
G03*
X59260Y20927I-197J0D01*
G01*
X44496Y20927D02*
Y23289D01*
X60244D01*
Y19943D02*
Y23289D01*
X50992Y20927D02*
X59260Y20927D01*
X50008Y19943D02*
X50795D01*
X44496Y20927D02*
X49811D01*
X50008Y19943D02*
Y20730D01*
X50795Y19943D02*
Y20730D01*
X59457Y19943D02*
Y20730D01*
Y19943D02*
X60244D01*
X10512Y28077D02*
G03*
X10315Y28274I-197J0D01*
G01*
X11496Y28274D02*
G03*
X11299Y28077I0J-197D01*
G01*
X19961Y28077D02*
G03*
X19764Y28274I-197J0D01*
G01*
X5000Y28274D02*
Y30636D01*
X20748D01*
Y27289D02*
Y30636D01*
X11496Y28274D02*
X19764Y28274D01*
X10512Y27289D02*
X11299D01*
X5000Y28274D02*
X10315D01*
X10512Y27289D02*
Y28077D01*
X11299Y27289D02*
Y28077D01*
X19961Y27289D02*
Y28077D01*
Y27289D02*
X20748D01*
X30260Y28077D02*
G03*
X30063Y28274I-197J0D01*
G01*
X31244Y28274D02*
G03*
X31047Y28077I0J-197D01*
G01*
X39709Y28077D02*
G03*
X39512Y28274I-197J0D01*
G01*
X24748Y28274D02*
Y30636D01*
X40496D01*
Y27289D02*
Y30636D01*
X31244Y28274D02*
X39512Y28274D01*
X30260Y27289D02*
X31047D01*
X24748Y28274D02*
X30063D01*
X30260Y27289D02*
Y28077D01*
X31047Y27289D02*
Y28077D01*
X39709Y27289D02*
Y28077D01*
Y27289D02*
X40496D01*
X50008Y28077D02*
G03*
X49811Y28274I-197J0D01*
G01*
X50992Y28274D02*
G03*
X50795Y28077I0J-197D01*
G01*
X59457Y28077D02*
G03*
X59260Y28274I-197J0D01*
G01*
X44496Y28274D02*
Y30636D01*
X60244D01*
Y27289D02*
Y30636D01*
X50992Y28274D02*
X59260Y28274D01*
X50008Y27289D02*
X50795D01*
X44496Y28274D02*
X49811D01*
X50008Y27289D02*
Y28077D01*
X50795Y27289D02*
Y28077D01*
X59457Y27289D02*
Y28077D01*
Y27289D02*
X60244D01*
X10512Y35423D02*
G03*
X10315Y35620I-197J0D01*
G01*
X11496Y35620D02*
G03*
X11299Y35423I0J-197D01*
G01*
X19961Y35423D02*
G03*
X19764Y35620I-197J0D01*
G01*
X5000Y35620D02*
Y37982D01*
X20748D01*
Y34636D02*
Y37982D01*
X11496Y35620D02*
X19764Y35620D01*
X10512Y34636D02*
X11299D01*
X5000Y35620D02*
X10315D01*
X10512Y34636D02*
Y35423D01*
X11299Y34636D02*
Y35423D01*
X19961Y34636D02*
Y35423D01*
Y34636D02*
X20748D01*
X30260Y35423D02*
G03*
X30063Y35620I-197J0D01*
G01*
X31244Y35620D02*
G03*
X31047Y35423I0J-197D01*
G01*
X39709Y35423D02*
G03*
X39512Y35620I-197J0D01*
G01*
X24748Y35620D02*
Y37982D01*
X40496D01*
Y34636D02*
Y37982D01*
X31244Y35620D02*
X39512Y35620D01*
X30260Y34636D02*
X31047D01*
X24748Y35620D02*
X30063D01*
X30260Y34636D02*
Y35423D01*
X31047Y34636D02*
Y35423D01*
X39709Y34636D02*
Y35423D01*
Y34636D02*
X40496D01*
X50008Y35423D02*
G03*
X49811Y35620I-197J0D01*
G01*
X50992Y35620D02*
G03*
X50795Y35423I0J-197D01*
G01*
X59457Y35423D02*
G03*
X59260Y35620I-197J0D01*
G01*
X44496Y35620D02*
Y37982D01*
X60244D01*
Y34636D02*
Y37982D01*
X50992Y35620D02*
X59260Y35620D01*
X50008Y34636D02*
X50795D01*
X44496Y35620D02*
X49811D01*
X50008Y34636D02*
Y35423D01*
X50795Y34636D02*
Y35423D01*
X59457Y34636D02*
Y35423D01*
Y34636D02*
X60244D01*
X10512Y42770D02*
G03*
X10315Y42967I-197J0D01*
G01*
X11496Y42967D02*
G03*
X11299Y42770I0J-197D01*
G01*
X19961Y42770D02*
G03*
X19764Y42967I-197J0D01*
G01*
X5000Y42967D02*
Y45329D01*
X20748D01*
Y41982D02*
Y45329D01*
X11496Y42967D02*
X19764Y42967D01*
X10512Y41982D02*
X11299D01*
X5000Y42967D02*
X10315D01*
X10512Y41982D02*
Y42770D01*
X11299Y41982D02*
Y42770D01*
X19961Y41982D02*
Y42770D01*
Y41982D02*
X20748D01*
X30260Y42770D02*
G03*
X30063Y42967I-197J0D01*
G01*
X31244Y42967D02*
G03*
X31047Y42770I0J-197D01*
G01*
X39709Y42770D02*
G03*
X39512Y42967I-197J0D01*
G01*
X24748Y42967D02*
Y45329D01*
X40496D01*
Y41982D02*
Y45329D01*
X31244Y42967D02*
X39512Y42967D01*
X30260Y41982D02*
X31047D01*
X24748Y42967D02*
X30063D01*
X30260Y41982D02*
Y42770D01*
X31047Y41982D02*
Y42770D01*
X39709Y41982D02*
Y42770D01*
Y41982D02*
X40496D01*
X50008Y42770D02*
G03*
X49811Y42967I-197J0D01*
G01*
X50992Y42967D02*
G03*
X50795Y42770I0J-197D01*
G01*
X59457Y42770D02*
G03*
X59260Y42967I-197J0D01*
G01*
X44496Y42967D02*
Y45329D01*
X60244D01*
Y41982D02*
Y45329D01*
X50992Y42967D02*
X59260Y42967D01*
X50008Y41982D02*
X50795D01*
X44496Y42967D02*
X49811D01*
X50008Y41982D02*
Y42770D01*
X50795Y41982D02*
Y42770D01*
X59457Y41982D02*
Y42770D01*
Y41982D02*
X60244D01*
X10512Y50116D02*
G03*
X10315Y50313I-197J0D01*
G01*
X11496Y50313D02*
G03*
X11299Y50116I0J-197D01*
G01*
X19961Y50116D02*
G03*
X19764Y50313I-197J0D01*
G01*
X5000Y50313D02*
Y52675D01*
X20748D01*
Y49329D02*
Y52675D01*
X11496Y50313D02*
X19764Y50313D01*
X10512Y49329D02*
X11299D01*
X5000Y50313D02*
X10315D01*
X10512Y49329D02*
Y50116D01*
X11299Y49329D02*
Y50116D01*
X19961Y49329D02*
Y50116D01*
Y49329D02*
X20748D01*
X30260Y50116D02*
G03*
X30063Y50313I-197J0D01*
G01*
X31244Y50313D02*
G03*
X31047Y50116I0J-197D01*
G01*
X39709Y50116D02*
G03*
X39512Y50313I-197J0D01*
G01*
X24748Y50313D02*
Y52675D01*
X40496D01*
Y49329D02*
Y52675D01*
X31244Y50313D02*
X39512Y50313D01*
X30260Y49329D02*
X31047D01*
X24748Y50313D02*
X30063D01*
X30260Y49329D02*
Y50116D01*
X31047Y49329D02*
Y50116D01*
X39709Y49329D02*
Y50116D01*
Y49329D02*
X40496D01*
X50008Y50116D02*
G03*
X49811Y50313I-197J0D01*
G01*
X50992Y50313D02*
G03*
X50795Y50116I0J-197D01*
G01*
X59457Y50116D02*
G03*
X59260Y50313I-197J0D01*
G01*
X44496Y50313D02*
Y52675D01*
X60244D01*
Y49329D02*
Y52675D01*
X50992Y50313D02*
X59260Y50313D01*
X50008Y49329D02*
X50795D01*
X44496Y50313D02*
X49811D01*
X50008Y49329D02*
Y50116D01*
X50795Y49329D02*
Y50116D01*
X59457Y49329D02*
Y50116D01*
Y49329D02*
X60244D01*
X10512Y57463D02*
G03*
X10315Y57659I-197J0D01*
G01*
X11496Y57659D02*
G03*
X11299Y57463I0J-197D01*
G01*
X19961Y57463D02*
G03*
X19764Y57659I-197J0D01*
G01*
X5000Y57659D02*
Y60022D01*
X20748D01*
Y56675D02*
Y60022D01*
X11496Y57659D02*
X19764Y57659D01*
X10512Y56675D02*
X11299D01*
X5000Y57659D02*
X10315D01*
X10512Y56675D02*
Y57463D01*
X11299Y56675D02*
Y57463D01*
X19961Y56675D02*
Y57463D01*
Y56675D02*
X20748D01*
X30260Y57463D02*
G03*
X30063Y57659I-197J0D01*
G01*
X31244Y57659D02*
G03*
X31047Y57463I0J-197D01*
G01*
X39709Y57463D02*
G03*
X39512Y57659I-197J0D01*
G01*
X24748Y57659D02*
Y60022D01*
X40496D01*
Y56675D02*
Y60022D01*
X31244Y57659D02*
X39512Y57659D01*
X30260Y56675D02*
X31047D01*
X24748Y57659D02*
X30063D01*
X30260Y56675D02*
Y57463D01*
X31047Y56675D02*
Y57463D01*
X39709Y56675D02*
Y57463D01*
Y56675D02*
X40496D01*
X50008Y57463D02*
G03*
X49811Y57659I-197J0D01*
G01*
X50992Y57659D02*
G03*
X50795Y57463I0J-197D01*
G01*
X59457Y57463D02*
G03*
X59260Y57659I-197J0D01*
G01*
X44496Y57659D02*
Y60022D01*
X60244D01*
Y56675D02*
Y60022D01*
X50992Y57659D02*
X59260Y57659D01*
X50008Y56675D02*
X50795D01*
X44496Y57659D02*
X49811D01*
X50008Y56675D02*
Y57463D01*
X50795Y56675D02*
Y57463D01*
X59457Y56675D02*
Y57463D01*
Y56675D02*
X60244D01*
X10512Y64809D02*
G03*
X10315Y65006I-197J0D01*
G01*
X11496Y65006D02*
G03*
X11299Y64809I0J-197D01*
G01*
X19961Y64809D02*
G03*
X19764Y65006I-197J0D01*
G01*
X5000Y65006D02*
Y67368D01*
X20748D01*
Y64022D02*
Y67368D01*
X11496Y65006D02*
X19764Y65006D01*
X10512Y64022D02*
X11299D01*
X5000Y65006D02*
X10315D01*
X10512Y64022D02*
Y64809D01*
X11299Y64022D02*
Y64809D01*
X19961Y64022D02*
Y64809D01*
Y64022D02*
X20748D01*
X30260Y64809D02*
G03*
X30063Y65006I-197J0D01*
G01*
X31244Y65006D02*
G03*
X31047Y64809I0J-197D01*
G01*
X39709Y64809D02*
G03*
X39512Y65006I-197J0D01*
G01*
X24748Y65006D02*
Y67368D01*
X40496D01*
Y64022D02*
Y67368D01*
X31244Y65006D02*
X39512Y65006D01*
X30260Y64022D02*
X31047D01*
X24748Y65006D02*
X30063D01*
X30260Y64022D02*
Y64809D01*
X31047Y64022D02*
Y64809D01*
X39709Y64022D02*
Y64809D01*
Y64022D02*
X40496D01*
X50008Y64809D02*
G03*
X49811Y65006I-197J0D01*
G01*
X50992Y65006D02*
G03*
X50795Y64809I0J-197D01*
G01*
X59457Y64809D02*
G03*
X59260Y65006I-197J0D01*
G01*
X44496Y65006D02*
Y67368D01*
X60244D01*
Y64022D02*
Y67368D01*
X50992Y65006D02*
X59260Y65006D01*
X50008Y64022D02*
X50795D01*
X44496Y65006D02*
X49811D01*
X50008Y64022D02*
Y64809D01*
X50795Y64022D02*
Y64809D01*
X59457Y64022D02*
Y64809D01*
Y64022D02*
X60244D01*
X10512Y72156D02*
G03*
X10315Y72352I-197J0D01*
G01*
X11496Y72352D02*
G03*
X11299Y72156I0J-197D01*
G01*
X19961Y72156D02*
G03*
X19764Y72352I-197J0D01*
G01*
X5000Y72352D02*
Y74715D01*
X20748D01*
Y71368D02*
Y74715D01*
X11496Y72352D02*
X19764Y72352D01*
X10512Y71368D02*
X11299D01*
X5000Y72352D02*
X10315D01*
X10512Y71368D02*
Y72156D01*
X11299Y71368D02*
Y72156D01*
X19961Y71368D02*
Y72156D01*
Y71368D02*
X20748D01*
X30260Y72156D02*
G03*
X30063Y72352I-197J0D01*
G01*
X31244Y72352D02*
G03*
X31047Y72156I0J-197D01*
G01*
X39709Y72156D02*
G03*
X39512Y72352I-197J0D01*
G01*
X24748Y72352D02*
Y74715D01*
X40496D01*
Y71368D02*
Y74715D01*
X31244Y72352D02*
X39512Y72352D01*
X30260Y71368D02*
X31047D01*
X24748Y72352D02*
X30063D01*
X30260Y71368D02*
Y72156D01*
X31047Y71368D02*
Y72156D01*
X39709Y71368D02*
Y72156D01*
Y71368D02*
X40496D01*
X50008Y72156D02*
G03*
X49811Y72352I-197J0D01*
G01*
X50992Y72352D02*
G03*
X50795Y72156I0J-197D01*
G01*
X59457Y72156D02*
G03*
X59260Y72352I-197J0D01*
G01*
X44496Y72352D02*
Y74715D01*
X60244D01*
Y71368D02*
Y74715D01*
X50992Y72352D02*
X59260Y72352D01*
X50008Y71368D02*
X50795D01*
X44496Y72352D02*
X49811D01*
X50008Y71368D02*
Y72156D01*
X50795Y71368D02*
Y72156D01*
X59457Y71368D02*
Y72156D01*
Y71368D02*
X60244D01*
M02*
